<svg width="40" height="40" viewBox="0 0 40 40" fill="none" xmlns="http://www.w3.org/2000/svg">
<g clip-path="url(#clip0_231_29)">
<path d="M26.48 19.6C28.1067 19.9467 29.4133 20.76 30.4 22.04C31.3867 23.2933 31.88 24.7333 31.88 26.36C31.88 28.7067 31.0533 30.5733 29.4 31.96C27.7733 33.32 25.4933 34 22.56 34H9.48V5.92H22.12C24.9733 5.92 27.2 6.57333 28.8 7.88C30.4267 9.18667 31.24 10.96 31.24 13.2C31.24 14.8533 30.8 16.2267 29.92 17.32C29.0667 18.4133 27.92 19.1733 26.48 19.6ZM16.32 17.28H20.8C21.92 17.28 22.7733 17.04 23.36 16.56C23.9733 16.0533 24.28 15.32 24.28 14.36C24.28 13.4 23.9733 12.6667 23.36 12.16C22.7733 11.6533 21.92 11.4 20.8 11.4H16.32V17.28ZM21.36 28.48C22.5067 28.48 23.3867 28.2267 24 27.72C24.64 27.1867 24.96 26.4267 24.96 25.44C24.96 24.4533 24.6267 23.68 23.96 23.12C23.32 22.56 22.4267 22.28 21.28 22.28H16.32V28.48H21.36Z" fill="black"/>
</g>
<defs>
<clipPath id="clip0_231_29">
<rect width="40" height="40" fill="white"/>
</clipPath>
</defs>
</svg>
