<svg width="40" height="38" viewBox="0 0 40 38" fill="none" xmlns="http://www.w3.org/2000/svg">
<path d="M16 10C16 10 12.9767 10 10.8174 10C0.884226 12.25 2.61182 26.65 10.8173 28C12.9766 28 16 28 16 28" stroke="#232323" stroke-width="3.5" stroke-linecap="round"/>
<path d="M16 10C16 10 12.9767 10 10.8174 10C0.884226 12.25 2.61182 26.65 10.8173 28C12.9766 28 16 28 16 28" stroke="#232323" stroke-width="3.5" stroke-linecap="round"/>
<path d="M24 28C24 28 27.0233 28 29.1826 28C39.1158 25.75 37.3882 11.35 29.1827 10C27.0234 10 24 10 24 10" stroke="#232323" stroke-width="3.5" stroke-linecap="round"/>
<path d="M24 28C24 28 27.0233 28 29.1826 28C39.1158 25.75 37.3882 11.35 29.1827 10C27.0234 10 24 10 24 10" stroke="#232323" stroke-width="3.5" stroke-linecap="round"/>
<path d="M13 19H27" stroke="#232323" stroke-width="3.5" stroke-linecap="round"/>
</svg>
