<svg width="40" height="40" viewBox="0 0 40 40" fill="none" xmlns="http://www.w3.org/2000/svg">
<g clip-path="url(#clip0_234_68)">
<path d="M3.54848 4.5V3.21H5.95848V10.5H4.51848V4.5H3.54848Z" fill="black"/>
<path d="M12 7L37 7" stroke="#232323" stroke-width="4.5" stroke-linecap="round"/>
<path d="M3.47 21.92C4.11 21.3867 4.62 20.9433 5 20.59C5.38 20.23 5.69667 19.8567 5.95 19.47C6.20333 19.0833 6.33 18.7033 6.33 18.33C6.33 17.99 6.25 17.7233 6.09 17.53C5.93 17.3367 5.68333 17.24 5.35 17.24C5.01667 17.24 4.76 17.3533 4.58 17.58C4.4 17.8 4.30667 18.1033 4.3 18.49H2.94C2.96667 17.69 3.20333 17.0833 3.65 16.67C4.10333 16.2567 4.67667 16.05 5.37 16.05C6.13 16.05 6.71333 16.2533 7.12 16.66C7.52667 17.06 7.73 17.59 7.73 18.25C7.73 18.77 7.59 19.2667 7.31 19.74C7.03 20.2133 6.71 20.6267 6.35 20.98C5.99 21.3267 5.52 21.7467 4.94 22.24H7.89V23.4H2.95V22.36L3.47 21.92Z" fill="black"/>
<path d="M12.5 20L37.5 20" stroke="#232323" stroke-width="4.5" stroke-linecap="round"/>
<path d="M3.05 31.13C3.08333 30.4633 3.31667 29.95 3.75 29.59C4.19 29.2233 4.76667 29.04 5.48 29.04C5.96667 29.04 6.38333 29.1267 6.73 29.3C7.07667 29.4667 7.33667 29.6967 7.51 29.99C7.69 30.2767 7.78 30.6033 7.78 30.97C7.78 31.39 7.67 31.7467 7.45 32.04C7.23667 32.3267 6.98 32.52 6.68 32.62V32.66C7.06667 32.78 7.36667 32.9933 7.58 33.3C7.8 33.6067 7.91 34 7.91 34.48C7.91 34.88 7.81667 35.2367 7.63 35.55C7.45 35.8633 7.18 36.11 6.82 36.29C6.46667 36.4633 6.04 36.55 5.54 36.55C4.78667 36.55 4.17333 36.36 3.7 35.98C3.22667 35.6 2.97667 35.04 2.95 34.3H4.31C4.32333 34.6267 4.43333 34.89 4.64 35.09C4.85333 35.2833 5.14333 35.38 5.51 35.38C5.85 35.38 6.11 35.2867 6.29 35.1C6.47667 34.9067 6.57 34.66 6.57 34.36C6.57 33.96 6.44333 33.6733 6.19 33.5C5.93667 33.3267 5.54333 33.24 5.01 33.24H4.72V32.09H5.01C5.95667 32.09 6.43 31.7733 6.43 31.14C6.43 30.8533 6.34333 30.63 6.17 30.47C6.00333 30.31 5.76 30.23 5.44 30.23C5.12667 30.23 4.88333 30.3167 4.71 30.49C4.54333 30.6567 4.44667 30.87 4.42 31.13H3.05Z" fill="black"/>
<path d="M12.5 33L37.5 33" stroke="#232323" stroke-width="4.5" stroke-linecap="round"/>
</g>
<defs>
<clipPath id="clip0_234_68">
<rect width="40" height="40" fill="white"/>
</clipPath>
</defs>
</svg>
