<svg width="40" height="40" viewBox="0 0 40 40" fill="none" xmlns="http://www.w3.org/2000/svg">
<g clip-path="url(#clip0_231_57)">
<path d="M7 20.0005L33 20" stroke="black" stroke-width="2" stroke-linecap="round"/>
<path d="M20.16 34.28C18.2933 34.28 16.6133 33.96 15.12 33.32C13.6267 32.6533 12.4533 31.72 11.6 30.52C10.7467 29.32 10.32 27.92 10.32 26.32H15.2C15.3067 27.52 15.7733 28.5067 16.6 29.28C17.4533 30.0533 18.64 30.44 20.16 30.44C21.7333 30.44 22.96 30.0667 23.84 29.32C24.72 28.5467 25.16 27.56 25.16 26.36C25.16 25.4267 24.88 24.6667 24.32 24.08C23.7867 23.4933 23.1067 23.04 22.28 22.72C21.48 22.4 20.36 22.0533 18.92 21.68C17.1067 21.2 15.6267 20.72 14.48 20.24C13.36 19.7333 12.4 18.96 11.6 17.92C10.8 16.88 10.4 15.4933 10.4 13.76C10.4 12.16 10.8 10.76 11.6 9.56C12.4 8.36 13.52 7.44 14.96 6.8C16.4 6.16 18.0667 5.84 19.96 5.84C22.6533 5.84 24.8533 6.52 26.56 7.88C28.2933 9.21333 29.2533 11.0533 29.44 13.4H24.4C24.32 12.3867 23.84 11.52 22.96 10.8C22.08 10.08 20.92 9.72 19.48 9.72C18.1733 9.72 17.1067 10.0533 16.28 10.72C15.4533 11.3867 15.04 12.3467 15.04 13.6C15.04 14.4533 15.2933 15.16 15.8 15.72C16.3333 16.2533 17 16.68 17.8 17C18.6 17.32 19.6933 17.6667 21.08 18.04C22.92 18.5467 24.4133 19.0533 25.56 19.56C26.7333 20.0667 27.72 20.8533 28.52 21.92C29.3467 22.96 29.76 24.36 29.76 26.12C29.76 27.5333 29.3733 28.8667 28.6 30.12C27.8533 31.3733 26.7467 32.3867 25.28 33.16C23.84 33.9067 22.1333 34.28 20.16 34.28Z" fill="black"/>
</g>
<defs>
<clipPath id="clip0_231_57">
<rect width="40" height="40" fill="white"/>
</clipPath>
</defs>
</svg>
