<svg width="40" height="40" viewBox="0 0 40 40" fill="none" xmlns="http://www.w3.org/2000/svg">
<g clip-path="url(#clip0_231_54)">
<path d="M6 37.0006L32 37" stroke="black" stroke-width="2" stroke-linecap="round"/>
<path d="M12.956 7.285V23.676C12.956 25.6247 13.4617 27.0923 14.473 28.079C15.509 29.0657 16.9397 29.559 18.765 29.559C20.615 29.559 22.0457 29.0657 23.057 28.079C24.093 27.0923 24.611 25.6247 24.611 23.676V7.285H28.829V23.602C28.829 25.6987 28.3727 27.4747 27.46 28.93C26.5473 30.3853 25.3263 31.4707 23.797 32.186C22.2677 32.9013 20.578 33.259 18.728 33.259C16.878 33.259 15.1883 32.9013 13.659 32.186C12.1543 31.4707 10.958 30.3853 10.07 28.93C9.182 27.4747 8.738 25.6987 8.738 23.602V7.285H12.956Z" fill="black"/>
</g>
<defs>
<clipPath id="clip0_231_54">
<rect width="40" height="40" fill="white"/>
</clipPath>
</defs>
</svg>
